<svg xmlns="http://www.w3.org/2000/svg" xmlns:xlink="http://www.w3.org/1999/xlink" width="17" height="14" viewBox="0 0 17 14"><defs><path id="a" d="M463.76 1172.42c-.42.61-1.27.77-1.88.34l-5.55-3.84c-.39-.27-.6-.71-.58-1.15a4.9 4.9 0 0 1-8.41-2.48 4.9 4.9 0 0 1 7.62-4.92 4.92 4.92 0 0 1 1.62 6.2c.4-.17.9-.14 1.29.13l5.55 3.84c.61.43.76 1.27.34 1.88zm-8.23-8.62a3.41 3.41 0 0 0-6.18-1.34 3.42 3.42 0 1 0 6.18 1.34z"/></defs><desc>Generated with Avocode.</desc><g transform="translate(-447 -1159)"><use fill="#242323" xlink:href="#a"/></g></svg>