<svg xmlns="http://www.w3.org/2000/svg" xmlns:xlink="http://www.w3.org/1999/xlink" width="26" height="26" viewBox="0 0 26 26"><defs><path id="a" d="M1161.28 139.5h-3.9v-.97h3.9zm-6.5 3.97c.25.4.38.87.38 1.42a2.8 2.8 0 0 1-.43 1.55 2.67 2.67 0 0 1-1.78 1.24c-.42.09-.87.13-1.36.13h-4.37v-9.68h4.68c1.18.02 2.02.36 2.51 1.03.29.41.44.9.44 1.48 0 .6-.15 1.07-.45 1.43-.16.2-.41.38-.73.55.49.18.86.46 1.11.85zm-5.32-1.52h2.05c.42 0 .76-.08 1.02-.24.26-.16.39-.45.39-.85 0-.45-.17-.75-.52-.9-.3-.1-.68-.15-1.14-.15h-1.8zm3.66 2.8c0-.5-.21-.85-.62-1.03a2.4 2.4 0 0 0-.96-.17h-2.08v2.58h2.04c.42 0 .75-.05.98-.17.43-.2.64-.61.64-1.2zm9.6-1.57c.05.31.07.77.06 1.37h-5.05c.03.7.27 1.19.73 1.47.27.17.61.26 1 .26.41 0 .75-.1 1.01-.32.14-.11.26-.27.37-.47h1.85c-.05.4-.27.82-.67 1.25a3.37 3.37 0 0 1-2.61 1.01 3.85 3.85 0 0 1-2.44-.85c-.71-.57-1.06-1.5-1.06-2.78 0-1.2.32-2.13.95-2.77a3.35 3.35 0 0 1 2.48-.96c.61 0 1.15.1 1.63.33.49.21.89.55 1.2 1.02.29.42.47.9.55 1.44zm-1.82.18a1.5 1.5 0 0 0-.48-1.1 1.6 1.6 0 0 0-1.08-.37c-.46 0-.82.13-1.08.4-.26.26-.42.62-.48 1.07zm-18.84-.3a12.6 12.6 0 1 0 25.2 0 12.6 12.6 0 0 0-25.2 0z"/></defs><desc>Generated with Avocode.</desc><g transform="translate(-1142 -130)"><use fill="#fff" xlink:href="#a"/><use fill="#cfcecd" xlink:href="#a"/></g></svg>