<svg xmlns="http://www.w3.org/2000/svg" xmlns:xlink="http://www.w3.org/1999/xlink" width="26" height="26" viewBox="0 0 26 26"><defs><path id="a" d="M1224.32 148.85h-2.23c0-5.65-4.62-10.2-10.22-10.2v-2.26c6.48 0 12.45 5.63 12.45 12.46zm-4.44 0h-2.19a5.8 5.8 0 0 0-5.81-5.78l-.01-2.23a8.1 8.1 0 0 1 8.01 8.02zm-4.77-1.85c0 .93-.74 1.7-1.65 1.7a1.67 1.67 0 0 1-.01-3.35c.89 0 1.66.73 1.66 1.65zm-9.8-4.78a12.6 12.6 0 1 0 25.2 0 12.6 12.6 0 0 0-25.2 0z"/></defs><desc>Generated with Avocode.</desc><g transform="translate(-1205 -129)"><use fill="#31c3c5" xlink:href="#a"/><use fill="#cfcecd" xlink:href="#a"/></g></svg>