<svg xmlns="http://www.w3.org/2000/svg" xmlns:xlink="http://www.w3.org/1999/xlink" width="26" height="26" viewBox="0 0 26 26"><defs><path id="a" d="M1123.16 151.47a8.54 8.54 0 1 1 .02-17.08 8.54 8.54 0 0 1-.02 17.08zm6.99-7.65a15.9 15.9 0 0 0-4.48-.03c.54 1.56 1 3.25 1.36 5.02a7.06 7.06 0 0 0 3.12-5zm-4.46 5.68c-.34-1.98-.8-3.76-1.4-5.4-2.24.67-3.98 2.1-5.45 4.39a7 7 0 0 0 6.85 1.01zm-9.57-6.58c0 1.75.64 3.34 1.69 4.57 1.78-2.62 3.8-3.99 5.99-4.63-.18-.42-.37-.84-.57-1.25-1.96.59-4.28.9-7.09 1.03l-.02.28zm.16-1.48c2.22-.1 4.38-.35 6.37-.95a26.4 26.4 0 0 0-2.66-3.86 7.05 7.05 0 0 0-3.71 4.8zm6.88-5.57c-.61 0-1.21.08-1.78.23.98 1.08 1.87 2.4 2.66 3.9a11.63 11.63 0 0 0 3.72-2.42 7 7 0 0 0-4.6-1.71zm5.45 2.59a11.8 11.8 0 0 1-4.01 2.67c.21.46.41.94.6 1.43 1.58-.25 3.25-.2 4.99-.02a7.02 7.02 0 0 0-1.58-4.08zm-18.08 4.32a12.6 12.6 0 1 0 25.2 0 12.6 12.6 0 0 0-25.2 0z"/></defs><desc>Generated with Avocode.</desc><g transform="translate(-1110 -130)"><use fill="#fff" xlink:href="#a"/><use fill="#cfcecd" xlink:href="#a"/></g></svg>