<svg xmlns="http://www.w3.org/2000/svg" xmlns:xlink="http://www.w3.org/1999/xlink" width="26" height="26" viewBox="0 0 26 26"><defs><path id="a" d="M1090.87 141.54c0-.01 1.1-3.62 2.66-4.04.13 0 .28.26.28.26s.25-.54.55-.57c.2.12.29.42.14.53.05 0 .66-.44.97-.22.02.35-.97.91-.97.91s2.34 0 3.31 3.39c.03 0 1.28.18 2.12-.47-.07.74-1.5 1.36-1.5 1.36s.84.17 1.42.07c-.21 1.1-2.07 1-2.07 1s-1.44 4.93-5.94 5.65c-5.55.8-8.71-1.27-9.08-3.42 0 .02 3.33 2.96 6.09.03 0 0-.44-.02-.74-.23-.03-.03-.36-.25-.36-.63 0-.23.5-.83.5-.83s-1.08.05-1.76-.68c-.06-.06-.44-.36.09-.7.32-.2.82-.47.82-.47s-.47.17-.85 0c-.01-.01-.78-.63-.93-1.23-.14-.46.51-.44.51-.44l.44-.02s-1.55-1.13-1.15-2.03c0 0 .34-.67 5.45 2.78zm-8.11 4.45zm-4.17-2.88a12.6 12.6 0 1 0 25.2 0 12.6 12.6 0 0 0-25.2 0z"/></defs><desc>Generated with Avocode.</desc><g transform="translate(-1078 -130)"><use fill="#fff" xlink:href="#a"/><use fill="#cfcecd" xlink:href="#a"/></g></svg>