<svg xmlns="http://www.w3.org/2000/svg" xmlns:xlink="http://www.w3.org/1999/xlink" width="26" height="26" viewBox="0 0 26 26"><defs><path id="a" d="M1184.01 144.67c-.56-.04-1.9.3-1.9.3s-1.54.45-1.53 1.85c0 .18.07 2.13 3.14 2.18 2.86-.1 2.61-1.85 2.65-1.92-.02-1.32-1.75-2.33-2.36-2.4zm-.28-2.85c.42 0 .93-.23 1.21-.5.36-.35.46-.94.47-1.33 0-1.01-.66-3.28-2.28-3.28-.36.04-.93.17-1.26.61-.35.44-.4 1.01-.4 1.32-.01.83.57 3.19 2.26 3.18zm-.28.46c-.34.03-.43.02-.57.03a2.84 2.84 0 0 1-2.93-2.81 3.18 3.18 0 0 1 1.1-2.4c.56-.47 1.39-.95 3.21-.95h3.69l-1.15.64h-1.11c.13.09 1.22.78 1.29 2.39-.06 1.47-.98 2.09-1.51 2.54-.51.42-.49.9-.5.9-.02.42.45.73.45.73s.64.47.66.51c1.03.74 1.39 1.58 1.39 2.5 0 1.68-1.54 3.36-4.6 3.4.01 0-3.8.06-3.93-2.57 0 .01-.17-1.19 1.47-2.19 1.01-.67 2.34-.72 3.39-.83-.37-.43-.53-.75-.53-1.2.01-.25.06-.42.18-.69zm7.02-1.75v-1.69h-1.66v-1.09h1.66v-1.69h1.12v1.69h1.69v1.09h-1.69v1.69zm-17.06 2.25a12.6 12.6 0 1 0 25.19 0 12.6 12.6 0 0 0-25.19 0z"/></defs><desc>Generated with Avocode.</desc><g transform="translate(-1173 -130)"><use fill="#fff" xlink:href="#a"/><use fill="#cfcecd" xlink:href="#a"/></g></svg>